<svg version="1.1" id="Layer_1" xmlns="http://www.w3.org/2000/svg" xmlns:xlink="http://www.w3.org/1999/xlink" x="0px" y="0px"
	 width="100%" viewBox="0 0 259 194" enable-background="new 0 0 259 194" xml:space="preserve">
<path fill="#FEFEFE" opacity="1.000000" stroke="none" 
	d="
M122.000000,1.000002 
	C167.976135,1.000000 213.952271,1.000000 259.964203,1.000000 
	C259.964203,65.609238 259.964203,130.218506 259.964203,194.913879 
	C173.768936,194.913879 87.537758,194.913879 1.153287,194.913879 
	C1.153287,130.333588 1.153287,65.666847 1.153287,1.000000 
	C20.415915,1.000000 39.739300,1.000000 59.446121,1.330007 
	C56.500763,4.753570 53.171963,7.847126 49.648796,10.977171 
	C49.184185,11.139643 49.050198,11.351696 48.745224,11.825200 
	C44.189602,16.608650 39.941223,21.216719 35.524185,26.208965 
	C35.458336,35.123398 35.561146,43.653660 35.724579,52.522697 
	C40.273205,57.338348 44.761208,61.815224 49.422157,66.546295 
	C54.109009,71.221420 58.622910,75.642365 63.252617,80.367516 
	C67.938721,85.047737 72.509018,89.423744 77.133179,93.937469 
	C77.187035,94.075188 77.456543,94.196999 77.600258,94.518738 
	C80.158600,97.295692 82.417427,99.933128 85.025070,102.162575 
	C88.755989,105.352379 93.076729,105.441925 96.669350,102.276901 
	C99.478477,99.802109 101.848442,96.828812 104.594299,94.037224 
	C104.775047,93.997429 104.996216,93.700607 105.305908,93.618927 
	C109.908600,89.151184 114.201607,84.765121 118.660873,80.265701 
	C118.827141,80.152344 119.018501,79.797493 119.319214,79.678970 
	C123.891960,75.174095 128.163986,70.787750 132.677216,66.292465 
	C133.259293,65.800194 133.600189,65.416855 134.234467,64.869339 
	C138.380890,60.489872 142.233948,56.274593 146.183945,51.594986 
	C146.230179,42.705738 146.179474,34.280819 146.127243,25.513779 
	C141.741547,20.798870 137.357391,16.426079 132.889160,11.853471 
	C132.641708,11.379811 132.400635,11.246061 131.964478,10.922877 
	C128.564713,7.395569 125.282356,4.197786 122.000000,1.000002 
M157.893951,121.749290 
	C162.219604,122.014610 166.545242,122.279930 170.846390,122.543747 
	C170.846390,117.468819 170.846390,113.256531 170.854935,108.327774 
	C168.000015,104.340866 162.546021,102.420990 158.318039,104.215218 
	C157.285629,104.653351 156.692200,106.125916 155.207947,107.986580 
	C164.412186,106.347832 165.703903,106.750900 166.556030,110.698463 
	C163.800278,111.005676 160.853943,110.836197 158.335327,111.792816 
	C156.700195,112.413857 154.862686,114.569122 154.644485,116.236977 
	C154.449951,117.723976 156.355148,119.485680 157.893951,121.749290 
M179.776169,121.578079 
	C179.842545,118.432983 179.366943,115.139801 180.171219,112.196342 
	C180.683105,110.322906 182.881256,108.008713 184.702896,107.604950 
	C187.467072,106.992279 189.155273,109.078827 189.064453,112.192909 
	C188.969696,115.442421 189.043304,118.696831 189.043304,122.070496 
	C193.005051,121.086899 194.485596,115.844536 192.910522,109.112480 
	C192.566284,107.641228 191.469345,105.508675 190.329361,105.220108 
	C187.082077,104.398087 183.633774,104.370163 179.934219,103.996376 
	C179.934219,102.593109 179.934219,100.463249 179.934219,97.452339 
	C178.340546,98.110298 177.235275,98.566620 175.948975,99.941971 
	C175.942551,106.361931 176.018982,112.783585 175.886993,119.200966 
	C175.837448,121.609543 176.521164,122.612022 179.776169,121.578079 
M190.217590,88.110794 
	C190.060043,82.361954 189.085159,81.623276 183.528259,81.696854 
	C178.144760,81.768127 178.428635,85.244209 177.847336,89.188545 
	C176.236877,89.188545 174.626404,89.188545 172.821136,89.188545 
	C172.618881,87.471581 172.533920,86.003708 172.261490,84.571487 
	C171.271942,79.369514 166.874176,77.698235 158.812088,79.649406 
	C158.143005,79.811340 157.810074,81.362274 156.911942,83.025131 
	C166.714035,80.564590 169.089386,82.240082 166.995621,89.550095 
	C163.740372,89.550095 160.485123,89.550095 157.229874,89.550095 
	C157.014313,90.148270 156.798752,90.746445 156.583191,91.344620 
	C157.792511,91.983711 158.997879,93.170502 160.211761,93.179306 
	C176.971924,93.300896 193.733383,93.288208 210.494049,93.208488 
	C211.868362,93.201950 213.239227,92.469025 215.249176,91.779366 
	C215.800903,85.260422 216.443604,78.746704 216.818146,72.217598 
	C216.883438,71.079689 215.818573,69.876938 215.275681,68.704140 
	C214.472366,69.924049 213.096252,71.090385 212.976181,72.374199 
	C212.652695,75.832840 212.869080,79.341576 212.863571,82.830421 
	C212.852661,89.742027 212.510193,90.018326 204.613098,88.754784 
	C204.613098,84.456978 204.613098,80.019577 204.613098,75.582176 
	C204.096161,75.468788 203.579224,75.355408 203.062286,75.242020 
	C202.442795,76.499199 201.473114,77.706093 201.283752,79.025017 
	C200.979828,81.141907 201.191086,83.332924 201.186646,85.492615 
	C201.179993,88.739738 199.793625,90.091698 196.094452,88.810806 
	C196.094452,86.086945 196.295349,83.270721 196.050171,80.493874 
	C195.618362,75.603340 190.587189,73.403053 182.990845,74.851234 
	C182.123764,75.016541 181.501633,76.466667 180.413620,77.730186 
	C184.137329,77.730186 186.627960,77.365677 188.921967,77.879372 
	C190.122757,78.148247 191.986801,80.177261 191.801682,81.032715 
	C191.233887,83.656342 194.446838,87.164734 190.217590,88.110794 
M216.831894,104.679970 
	C216.831894,102.454834 216.831894,100.229698 216.831894,97.664581 
	C210.818756,98.633652 213.878281,103.076416 212.569000,105.608612 
	C212.191315,105.489311 211.723389,105.383995 211.289948,105.198204 
	C205.374313,102.662392 199.884995,104.479668 198.094910,109.577019 
	C196.151382,115.111320 199.014175,120.841415 204.405548,122.208199 
	C210.710251,123.806541 215.616989,120.611237 216.540558,114.045845 
	C216.930237,111.275719 216.751968,108.425690 216.831894,104.679970 
M153.034821,77.446266 
	C152.323456,76.645012 151.696243,75.251923 150.887314,75.136940 
	C144.880356,74.283012 142.288742,78.168991 143.722702,85.722885 
	C145.440582,85.914124 147.179260,86.107674 148.824997,86.290878 
	C149.535217,91.251503 146.901688,92.362762 142.947952,92.336761 
	C137.198181,92.298950 136.870621,91.940750 135.987473,83.151794 
	C132.417664,83.125671 132.417664,83.125671 132.548965,87.294426 
	C132.760239,94.002022 136.409805,96.639099 144.602081,96.003716 
	C151.788361,95.446342 153.903015,91.808403 152.585785,82.191277 
	C150.760162,81.991783 148.919250,81.790611 147.078339,81.589447 
	C146.998169,81.141785 146.917984,80.694122 146.837814,80.246452 
	C148.879913,79.602478 150.922028,78.958504 153.034821,77.446266 
M132.976501,111.939903 
	C132.976501,115.229744 132.976501,118.519585 132.976501,121.809425 
	C133.458130,122.061615 133.939774,122.313805 134.421402,122.565994 
	C135.296204,121.314217 136.617630,120.165817 136.937103,118.785507 
	C137.374313,116.896652 137.079605,114.831055 137.045486,112.842117 
	C136.991577,109.698952 138.422729,107.587685 141.595413,107.474106 
	C144.853027,107.357491 146.296753,109.553108 146.380646,112.616425 
	C146.463760,115.651367 146.398819,118.690369 146.398819,121.913567 
	C150.696198,120.669250 150.942963,119.627548 150.320160,111.187729 
	C149.977722,106.547127 147.279114,104.415939 143.008545,103.926590 
	C137.460663,103.290886 134.570984,105.419075 132.976501,111.939903 
M225.085709,71.158653 
	C224.371628,70.350754 223.657547,69.542854 222.943481,68.734947 
	C222.312332,69.701630 221.159470,70.655067 221.134552,71.637131 
	C220.970444,78.103043 220.923721,84.579933 221.170593,91.040558 
	C221.212555,92.138527 222.854340,93.175354 223.757004,94.240433 
	C224.200089,93.945061 224.643173,93.649696 225.086258,93.354324 
	C225.086258,86.247650 225.086258,79.140976 225.085709,71.158653 
M221.037537,114.482880 
	C221.037537,116.935150 221.037537,119.387428 221.037537,122.953148 
	C222.853073,121.702332 224.776672,121.019295 224.813263,120.246880 
	C225.038437,115.492592 224.905624,110.714981 224.685608,105.954674 
	C224.660370,105.408806 223.212494,104.394958 222.681335,104.539948 
	C222.001678,104.725464 221.194748,105.831635 221.124695,106.603004 
	C220.916443,108.896553 221.042267,111.220428 221.037537,114.482880 
z"/>
<path fill="#FEFEFE" opacity="1.000000" stroke="none" 
	d="
M66.000000,0.999999 
	C82.354225,1.000000 98.708458,1.000000 115.375778,1.298290 
	C112.310936,4.710945 108.932999,7.825309 105.399147,10.972396 
	C105.058090,11.134842 104.941666,11.310217 104.578407,11.690831 
	C100.163940,16.273640 96.065033,20.696859 91.977295,25.328476 
	C91.988480,25.536875 92.007431,25.953840 91.660927,25.991188 
	C86.757629,30.213045 82.200836,34.397552 77.189796,38.999184 
	C85.498650,47.205429 93.179344,54.716415 100.749031,62.337639 
	C102.085327,63.683037 102.958115,65.488808 103.887947,67.373657 
	C99.514046,71.852280 95.297134,76.039238 90.984497,80.176292 
	C90.888771,80.126389 90.498337,80.225471 90.251389,79.958572 
	C85.655548,75.511902 81.306671,71.332130 76.995941,67.120285 
	C77.034103,67.088196 76.982040,67.003159 76.860115,66.693291 
	C72.150497,61.929214 67.562798,57.475006 62.846062,52.713669 
	C58.321003,47.983574 53.924988,43.560616 49.580109,38.914177 
	C49.631241,38.690701 49.620102,38.232334 49.745987,38.156303 
	C49.871868,38.080276 49.934013,37.792793 50.234196,37.669220 
	C54.647873,33.355614 58.761368,29.165585 63.176956,24.827999 
	C67.690552,20.117163 71.902061,15.553883 76.044724,10.653548 
	C72.650597,7.210997 69.325302,4.105497 66.000000,0.999999 
z"/>
<path fill="#74BA44" opacity="1.000000" stroke="none" 
	d="
M105.555061,10.939672 
	C108.932999,7.825309 112.310936,4.710945 115.844437,1.298290 
	C117.714355,1.000000 119.428719,1.000000 121.571533,1.000002 
	C125.282356,4.197786 128.564713,7.395569 131.911896,10.870730 
	C131.976715,11.148109 131.978424,11.005334 131.511185,11.002185 
	C122.547653,10.979248 114.051353,10.959460 105.555061,10.939672 
z"/>
<path fill="#74BA44" opacity="1.000000" stroke="none" 
	d="
M65.571533,0.999999 
	C69.325302,4.105497 72.650597,7.210997 75.567978,10.667635 
	C66.721092,10.992742 58.282127,10.966711 49.843163,10.940681 
	C53.171963,7.847126 56.500763,4.753570 59.914780,1.330007 
	C61.714359,1.000000 63.428715,1.000000 65.571533,0.999999 
z"/>
<path fill="#16515B" opacity="1.000000" stroke="none" 
	d="
M167.916626,89.593460 
	C169.089386,82.240082 166.714035,80.564590 156.911942,83.025131 
	C157.810074,81.362274 158.143005,79.811340 158.812088,79.649406 
	C166.874176,77.698235 171.271942,79.369514 172.261490,84.571487 
	C172.533920,86.003708 172.618881,87.471581 172.821136,89.188545 
	C174.626404,89.188545 176.236877,89.188545 178.703247,89.070511 
	C180.146240,88.927040 180.733292,88.901619 181.731232,89.003220 
	C183.856506,89.103325 185.570908,89.076401 187.646118,89.027222 
	C188.729248,88.983521 189.451599,88.962082 190.173950,88.940643 
	C194.446838,87.164734 191.233887,83.656342 191.801682,81.032715 
	C191.986801,80.177261 190.122757,78.148247 188.921967,77.879372 
	C186.627960,77.365677 184.137329,77.730186 180.413620,77.730186 
	C181.501633,76.466667 182.123764,75.016541 182.990845,74.851234 
	C190.587189,73.403053 195.618362,75.603340 196.050171,80.493874 
	C196.295349,83.270721 196.094452,86.086945 196.094452,88.810806 
	C199.793625,90.091698 201.179993,88.739738 201.186646,85.492615 
	C201.191086,83.332924 200.979828,81.141907 201.283752,79.025017 
	C201.473114,77.706093 202.442795,76.499199 203.062286,75.242020 
	C203.579224,75.355408 204.096161,75.468788 204.613098,75.582176 
	C204.613098,80.019577 204.613098,84.456978 204.613098,88.754784 
	C212.510193,90.018326 212.852661,89.742027 212.863571,82.830421 
	C212.869080,79.341576 212.652695,75.832840 212.976181,72.374199 
	C213.096252,71.090385 214.472366,69.924049 215.275681,68.704140 
	C215.818573,69.876938 216.883438,71.079689 216.818146,72.217598 
	C216.443604,78.746704 215.800903,85.260422 214.418488,91.902527 
	C195.455338,92.025688 177.322861,92.025688 157.937836,92.025688 
	C162.147736,90.999565 165.032181,90.296516 167.916626,89.593460 
z"/>
<path fill="#0E4B56" opacity="1.000000" stroke="none" 
	d="
M216.831879,105.145981 
	C216.751968,108.425690 216.930237,111.275719 216.540558,114.045845 
	C215.616989,120.611237 210.710251,123.806541 204.405548,122.208199 
	C199.014175,120.841415 196.151382,115.111320 198.094910,109.577019 
	C199.884995,104.479668 205.374313,102.662392 211.289948,105.198204 
	C211.723389,105.383995 212.191315,105.489311 212.569000,105.608612 
	C213.878281,103.076416 210.818756,98.633652 216.831894,97.664581 
	C216.831894,100.229698 216.831894,102.454834 216.831879,105.145981 
M207.415482,118.968178 
	C211.284637,118.571182 213.402802,115.973763 212.515869,112.621277 
	C211.954651,110.500000 209.248917,108.169838 207.053940,107.561821 
	C205.829178,107.222542 202.790451,109.904495 202.140991,111.771706 
	C200.901962,115.333916 202.477448,118.200211 207.415482,118.968178 
z"/>
<path fill="#0E4B56" opacity="1.000000" stroke="none" 
	d="
M152.999481,77.880394 
	C150.922028,78.958504 148.879913,79.602478 146.837814,80.246452 
	C146.917984,80.694122 146.998169,81.141785 147.078339,81.589447 
	C148.919250,81.790611 150.760162,81.991783 152.585785,82.191277 
	C153.903015,91.808403 151.788361,95.446342 144.602081,96.003716 
	C136.409805,96.639099 132.760239,94.002022 132.548965,87.294426 
	C132.417664,83.125671 132.417664,83.125671 135.987473,83.151794 
	C136.870621,91.940750 137.198181,92.298950 142.947952,92.336761 
	C146.901688,92.362762 149.535217,91.251503 148.824997,86.290878 
	C147.179260,86.107674 145.440582,85.914124 143.722702,85.722885 
	C142.288742,78.168991 144.880356,74.283012 150.887314,75.136940 
	C151.696243,75.251923 152.323456,76.645012 152.999481,77.880394 
z"/>
<path fill="#D0D654" opacity="1.000000" stroke="none" 
	d="
M49.648796,10.977170 
	C58.282127,10.966711 66.721092,10.992742 75.636810,11.004686 
	C71.902061,15.553883 67.690552,20.117163 62.952560,24.595806 
	C57.946529,20.388599 53.466991,16.266027 48.944130,12.012200 
	C48.900810,11.880944 49.052471,11.649820 49.052471,11.649820 
	C49.050198,11.351696 49.184185,11.139643 49.648796,10.977170 
z"/>
<path fill="#863A91" opacity="1.000000" stroke="none" 
	d="
M49.620102,38.232334 
	C49.620102,38.232334 49.631241,38.690701 49.419754,38.991299 
	C49.017258,39.448387 48.889561,39.645836 48.536018,40.044754 
	C44.052563,44.198151 39.858257,48.191036 35.663956,52.183918 
	C35.561146,43.653660 35.458336,35.123398 35.848869,26.363415 
	C40.768181,30.166571 45.194141,34.199451 49.620102,38.232334 
z"/>
<path fill="#9D2924" opacity="1.000000" stroke="none" 
	d="
M77.079323,93.799751 
	C72.509018,89.423744 67.938721,85.047737 63.232330,80.350266 
	C63.096237,80.028793 63.058895,79.990799 63.380474,79.902786 
	C68.128716,75.544235 72.555382,71.273697 76.982040,67.003159 
	C76.982040,67.003159 77.034103,67.088196 77.003487,67.578262 
	C77.008354,76.645462 77.043839,85.222610 77.079323,93.799751 
z"/>
<path fill="#2978B7" opacity="1.000000" stroke="none" 
	d="
M118.494614,80.379059 
	C114.201607,84.765121 109.908600,89.151184 105.312157,93.171097 
	C104.981735,84.293457 104.954750,75.781967 105.118141,67.226791 
	C105.308510,67.183113 105.696762,67.185280 105.874725,67.471237 
	C109.999557,71.638573 113.946419,75.519951 118.002975,79.670761 
	C118.239990,80.086487 118.367310,80.232780 118.494614,80.379059 
z"/>
<path fill="#E6202B" opacity="1.000000" stroke="none" 
	d="
M77.133179,93.937469 
	C77.043839,85.222610 77.008354,76.645462 76.965332,67.610344 
	C81.306671,71.332130 85.655548,75.511902 90.097244,80.263260 
	C86.103302,85.209343 82.016548,89.583832 77.792496,93.980347 
	C77.655197,94.002373 77.456543,94.196999 77.456543,94.196999 
	C77.456543,94.196999 77.187035,94.075188 77.133179,93.937469 
z"/>
<path fill="#33A4DC" opacity="1.000000" stroke="none" 
	d="
M104.927773,67.270470 
	C104.954750,75.781967 104.981735,84.293457 105.002472,93.252777 
	C104.996216,93.700607 104.775047,93.997429 104.497238,93.983276 
	C104.219421,93.969124 104.003876,94.022675 103.897614,93.703300 
	C99.554314,88.998016 95.317276,84.612106 91.080231,80.226196 
	C95.297134,76.039238 99.514046,71.852280 104.119064,67.371895 
	C104.507179,67.078468 104.927773,67.270470 104.927773,67.270470 
z"/>
<path fill="#E36A28" opacity="1.000000" stroke="none" 
	d="
M63.116524,80.046051 
	C58.622910,75.642365 54.109009,71.221420 49.404312,66.448166 
	C49.213520,66.095856 49.038937,66.006310 49.382259,65.997894 
	C54.067833,61.877140 58.410084,57.764801 62.834465,54.138222 
	C62.964024,63.079582 63.011459,71.535187 63.058899,79.990799 
	C63.058895,79.990799 63.096237,80.028793 63.116524,80.046051 
z"/>
<path fill="#7BBD4A" opacity="1.000000" stroke="none" 
	d="
M104.316483,94.023071 
	C101.848442,96.828812 99.478477,99.802109 96.669350,102.276901 
	C93.076729,105.441925 88.755989,105.352379 85.025070,102.162575 
	C82.417427,99.933128 80.158600,97.295692 77.600258,94.518738 
	C77.456543,94.196999 77.655197,94.002373 78.264908,94.018867 
	C87.251030,94.031136 95.627457,94.026909 104.003876,94.022675 
	C104.003876,94.022675 104.219421,93.969124 104.316483,94.023071 
z"/>
<path fill="#9C2720" opacity="1.000000" stroke="none" 
	d="
M49.745987,38.156303 
	C45.194141,34.199451 40.768181,30.166571 36.017532,25.979239 
	C39.941223,21.216719 44.189602,16.608650 48.745224,11.825200 
	C49.052471,11.649820 48.900810,11.880944 48.954041,12.470657 
	C49.013763,15.052920 48.953564,17.048336 49.039089,19.037485 
	C49.307941,25.290522 49.631588,31.541201 49.934013,37.792793 
	C49.934013,37.792793 49.871868,38.080276 49.745987,38.156303 
z"/>
<path fill="#9D2924" opacity="1.000000" stroke="none" 
	d="
M132.436020,66.401405 
	C128.163986,70.787750 123.891960,75.174095 119.317642,79.223946 
	C119.034126,70.511429 119.052887,62.135414 119.374855,53.919304 
	C123.692726,57.825813 127.707390,61.572418 131.872192,65.608322 
	C132.160248,66.065552 132.298141,66.233475 132.436020,66.401405 
z"/>
<path fill="#832F8B" opacity="1.000000" stroke="none" 
	d="
M146.128769,25.855896 
	C146.179474,34.280819 146.230179,42.705738 145.874557,51.451618 
	C141.367462,47.795803 137.266724,43.819027 133.064651,39.611706 
	C132.844681,39.262920 132.726013,39.144680 132.605865,38.897621 
	C132.604401,38.768795 132.705612,38.531837 132.994873,38.303764 
	C137.565674,34.002422 141.847214,29.929159 146.128769,25.855896 
z"/>
<path fill="#2177B9" opacity="1.000000" stroke="none" 
	d="
M35.724579,52.522697 
	C39.858257,48.191036 44.052563,44.198151 48.604187,40.518848 
	C48.987320,49.223721 49.013126,57.615017 49.038937,66.006310 
	C49.038937,66.006310 49.213520,66.095856 49.231361,66.193977 
	C44.761208,61.815224 40.273205,57.338348 35.724579,52.522697 
z"/>
<path fill="#2477B8" opacity="1.000000" stroke="none" 
	d="
M146.127243,25.513779 
	C141.847214,29.929159 137.565674,34.002422 132.922821,38.237717 
	C132.561523,38.399742 132.499451,38.218334 132.652115,37.933479 
	C132.840897,37.436222 132.876999,37.223816 132.937714,36.542671 
	C132.965942,28.067055 132.969589,20.060169 132.973236,12.053285 
	C137.357391,16.426079 141.741547,20.798870 146.127243,25.513779 
z"/>
<path fill="#E36A28" opacity="1.000000" stroke="none" 
	d="
M133.165970,39.842255 
	C137.266724,43.819027 141.367462,47.795803 145.777603,51.915947 
	C142.233948,56.274593 138.380890,60.489872 134.005920,64.860550 
	C133.483978,65.015953 133.025314,65.006508 133.010620,64.537270 
	C133.052628,55.992771 133.109299,47.917515 133.165970,39.842255 
z"/>
<path fill="#114E59" opacity="1.000000" stroke="none" 
	d="
M132.989929,111.500778 
	C134.570984,105.419075 137.460663,103.290886 143.008545,103.926590 
	C147.279114,104.415939 149.977722,106.547127 150.320160,111.187729 
	C150.942963,119.627548 150.696198,120.669250 146.398819,121.913567 
	C146.398819,118.690369 146.463760,115.651367 146.380646,112.616425 
	C146.296753,109.553108 144.853027,107.357491 141.595413,107.474106 
	C138.422729,107.587685 136.991577,109.698952 137.045486,112.842117 
	C137.079605,114.831055 137.374313,116.896652 136.937103,118.785507 
	C136.617630,120.165817 135.296204,121.314217 134.421402,122.565994 
	C133.939774,122.313805 133.458130,122.061615 132.976501,121.809425 
	C132.976501,118.519585 132.976501,115.229744 132.989929,111.500778 
z"/>
<path fill="#094853" opacity="1.000000" stroke="none" 
	d="
M176.130020,99.022934 
	C177.235275,98.566620 178.340546,98.110298 179.934219,97.452339 
	C179.934219,100.463249 179.934219,102.593109 179.934219,103.996376 
	C183.633774,104.370163 187.082077,104.398087 190.329361,105.220108 
	C191.469345,105.508675 192.566284,107.641228 192.910522,109.112480 
	C194.485596,115.844536 193.005051,121.086899 189.043304,122.070496 
	C189.043304,118.696831 188.969696,115.442421 189.064453,112.192909 
	C189.155273,109.078827 187.467072,106.992279 184.702896,107.604950 
	C182.881256,108.008713 180.683105,110.322906 180.171219,112.196342 
	C179.366943,115.139801 179.842545,118.432983 179.122498,121.424591 
	C177.982742,119.493637 177.205887,117.738945 177.064560,115.934486 
	C176.623810,110.307419 176.423538,104.661530 176.130020,99.022934 
z"/>
<path fill="#154E59" opacity="1.000000" stroke="none" 
	d="
M157.333710,121.126160 
	C156.355148,119.485680 154.449951,117.723976 154.644485,116.236977 
	C154.862686,114.569122 156.700195,112.413857 158.335327,111.792816 
	C160.853943,110.836197 163.800278,111.005676 166.556030,110.698463 
	C165.703903,106.750900 164.412186,106.347832 155.207947,107.986580 
	C156.692200,106.125916 157.285629,104.653351 158.318039,104.215218 
	C162.546021,102.420990 168.000015,104.340866 170.578506,108.989227 
	C170.188828,112.619583 170.142944,115.593102 169.940460,118.555901 
	C169.785461,120.823631 168.894211,121.739983 167.035828,119.351547 
	C167.141495,117.382233 167.141495,115.838890 167.141495,113.306633 
	C163.968613,114.086632 161.443954,114.707275 158.919281,115.327919 
	C159.329102,116.687553 159.738907,118.047188 159.934052,119.786667 
	C158.924164,120.486389 158.128937,120.806274 157.333710,121.126160 
z"/>
<path fill="#094853" opacity="1.000000" stroke="none" 
	d="
M225.085983,71.596481 
	C225.086258,79.140976 225.086258,86.247650 225.086258,93.354324 
	C224.643173,93.649696 224.200089,93.945061 223.757004,94.240433 
	C222.854340,93.175354 221.212555,92.138527 221.170593,91.040558 
	C220.923721,84.579933 220.970444,78.103043 221.134552,71.637131 
	C221.159470,70.655067 222.312332,69.701630 222.943481,68.734947 
	C223.657547,69.542854 224.371628,70.350754 225.085983,71.596481 
z"/>
<path fill="#0E4B56" opacity="1.000000" stroke="none" 
	d="
M221.037537,114.007668 
	C221.042267,111.220428 220.916443,108.896553 221.124695,106.603004 
	C221.194748,105.831635 222.001678,104.725464 222.681335,104.539948 
	C223.212494,104.394958 224.660370,105.408806 224.685608,105.954674 
	C224.905624,110.714981 225.038437,115.492592 224.813263,120.246880 
	C224.776672,121.019295 222.853073,121.702332 221.037537,122.953148 
	C221.037537,119.387428 221.037537,116.935150 221.037537,114.007668 
z"/>
<path fill="#003946" opacity="1.000000" stroke="none" 
	d="
M167.456116,89.571777 
	C165.032181,90.296516 162.147736,90.999565 157.937836,92.025688 
	C177.322861,92.025688 195.455338,92.025688 214.099747,92.049652 
	C213.239227,92.469025 211.868362,93.201950 210.494049,93.208488 
	C193.733383,93.288208 176.971924,93.300896 160.211761,93.179306 
	C158.997879,93.170502 157.792511,91.983711 156.583191,91.344620 
	C156.798752,90.746445 157.014313,90.148270 157.229874,89.550095 
	C160.485123,89.550095 163.740372,89.550095 167.456116,89.571777 
z"/>
<path fill="#003946" opacity="1.000000" stroke="none" 
	d="
M157.613831,121.437729 
	C158.128937,120.806274 158.924164,120.486389 160.348358,119.891876 
	C162.961609,119.670677 164.945877,119.724098 166.930145,119.777527 
	C168.894211,121.739983 169.785461,120.823631 169.940460,118.555901 
	C170.142944,115.593102 170.188828,112.619583 170.574234,109.347458 
	C170.846390,113.256531 170.846390,117.468819 170.846390,122.543747 
	C166.545242,122.279930 162.219604,122.014610 157.613831,121.437729 
z"/>
<path fill="#094853" opacity="1.000000" stroke="none" 
	d="
M181.320358,88.876190 
	C180.733292,88.901619 180.146240,88.927040 179.119186,88.922577 
	C178.428635,85.244209 178.144760,81.768127 183.528259,81.696854 
	C189.085159,81.623276 190.060043,82.361954 190.195770,88.525719 
	C189.451599,88.962082 188.729248,88.983521 187.681458,88.603745 
	C186.426117,86.812912 185.681015,84.430565 184.532303,84.216751 
	C180.844147,83.530289 181.707581,86.796288 181.320358,88.876190 
z"/>
<path fill="#D7383E" opacity="1.000000" stroke="none" 
	d="
M119.071648,53.759399 
	C119.052887,62.135414 119.034126,70.511429 119.016930,79.342468 
	C119.018501,79.797493 118.827141,80.152344 118.660881,80.265701 
	C118.367310,80.232780 118.239990,80.086487 118.043922,79.174469 
	C117.694145,70.621597 117.413116,62.834442 117.120926,54.744270 
	C117.715393,53.928120 118.321037,53.414982 118.972183,53.114670 
	C119.017677,53.327496 119.071648,53.759399 119.071648,53.759399 
z"/>
<path fill="#36A3DA" opacity="1.000000" stroke="none" 
	d="
M132.889160,11.853469 
	C132.969589,20.060169 132.965942,28.067055 132.632202,36.597641 
	C132.110596,37.201385 131.919098,37.281425 131.745453,37.326096 
	C131.763306,37.290726 131.684540,37.282108 131.792801,36.793411 
	C131.627487,28.548044 131.353912,20.791376 131.183365,12.764854 
	C131.517059,11.998445 131.747742,11.501888 131.978424,11.005333 
	C131.978424,11.005334 131.976715,11.148109 132.029297,11.200256 
	C132.400635,11.246061 132.641708,11.379811 132.889160,11.853469 
z"/>
<path fill="#003946" opacity="1.000000" stroke="none" 
	d="
M176.039490,99.482452 
	C176.423538,104.661530 176.623810,110.307419 177.064560,115.934486 
	C177.205887,117.738945 177.982742,119.493637 178.718170,121.560959 
	C176.521164,122.612022 175.837448,121.609543 175.886993,119.200966 
	C176.018982,112.783585 175.942551,106.361931 176.039490,99.482452 
z"/>
<path fill="#F49527" opacity="1.000000" stroke="none" 
	d="
M133.025314,65.006508 
	C133.025314,65.006508 133.483978,65.015953 133.712524,65.024734 
	C133.600189,65.416855 133.259293,65.800194 132.677216,66.292465 
	C132.298141,66.233475 132.160248,66.065552 131.942871,65.524902 
	C131.863403,65.152191 132.006134,64.993881 132.260925,64.996979 
	C132.685577,65.002213 132.855438,65.004356 133.025314,65.006508 
z"/>
<path fill="#E6E7E8" opacity="1.000000" stroke="none" 
	d="
M118.926682,52.901848 
	C118.321037,53.414982 117.715393,53.928120 116.961014,55.041309 
	C113.107101,59.489338 109.401932,63.337311 105.696762,67.185280 
	C105.696762,67.185280 105.308510,67.183113 105.118141,67.226791 
	C104.927773,67.270470 104.507179,67.078468 104.276062,67.080231 
	C102.958115,65.488808 102.085327,63.683037 100.749031,62.337639 
	C93.179344,54.716415 85.498650,47.205429 77.189796,38.999184 
	C82.200836,34.397552 86.757629,30.213045 91.799942,26.297602 
	C95.518867,29.864128 98.588226,33.354439 102.091583,36.334538 
	C103.067116,37.164368 105.967995,37.198177 106.886055,36.373348 
	C110.792786,32.863338 114.286812,28.893980 118.180542,25.038792 
	C118.598511,24.968142 118.767456,24.951027 119.093063,25.235029 
	C123.394653,29.451468 127.539597,33.366787 131.684540,37.282108 
	C131.684540,37.282108 131.763306,37.290726 131.791321,37.525955 
	C131.986511,38.002026 132.213226,38.154408 132.499451,38.218334 
	C132.499451,38.218334 132.561523,38.399742 132.633575,38.465790 
	C132.705612,38.531837 132.604401,38.768795 132.449890,38.985283 
	C132.102493,39.498184 131.909576,39.794590 131.408157,40.275085 
	C127.041992,44.606728 122.984337,48.754288 118.926682,52.901848 
z"/>
<path fill="#36A3DA" opacity="1.000000" stroke="none" 
	d="
M49.382259,65.997894 
	C49.013126,57.615017 48.987320,49.223721 48.893345,40.358337 
	C48.889561,39.645836 49.017258,39.448387 49.368622,39.214775 
	C53.924988,43.560616 58.321003,47.983574 62.762188,52.861618 
	C62.807358,53.316700 62.752338,53.652466 62.752338,53.652466 
	C58.410084,57.764801 54.067833,61.877140 49.382259,65.997894 
z"/>
<path fill="#F69829" opacity="1.000000" stroke="none" 
	d="
M62.834465,54.138222 
	C62.752338,53.652466 62.807358,53.316700 62.891235,53.168747 
	C67.562798,57.475006 72.150497,61.929214 76.860115,66.693291 
	C72.555382,71.273697 68.128716,75.544235 63.380478,79.902786 
	C63.011459,71.535187 62.964024,63.079582 62.834465,54.138222 
z"/>
<path fill="#CED952" opacity="1.000000" stroke="none" 
	d="
M118.936401,24.933908 
	C118.767456,24.951027 118.598511,24.968142 118.194260,24.972996 
	C117.958961,24.960737 118.044914,24.857386 117.899094,24.563498 
	C113.466835,20.023485 109.180405,15.777362 104.893967,11.531240 
	C104.941666,11.310217 105.058090,11.134842 105.399147,10.972395 
	C114.051353,10.959460 122.547653,10.979248 131.511185,11.002184 
	C131.747742,11.501888 131.517059,11.998445 130.878723,12.904039 
	C126.626167,17.186687 122.781288,21.060297 118.936401,24.933908 
z"/>
<path fill="#E6202B" opacity="1.000000" stroke="none" 
	d="
M50.234196,37.669220 
	C49.631588,31.541201 49.307941,25.290522 49.039089,19.037485 
	C48.953564,17.048336 49.013763,15.052920 48.997364,12.601913 
	C53.466991,16.266027 57.946529,20.388599 62.650467,24.743362 
	C58.761368,29.165585 54.647873,33.355614 50.234196,37.669220 
z"/>
<path fill="#FEFEFE" opacity="1.000000" stroke="none" 
	d="
M117.945236,25.026531 
	C114.286812,28.893980 110.792786,32.863338 106.886055,36.373348 
	C105.967995,37.198177 103.067116,37.164368 102.091583,36.334538 
	C98.588226,33.354439 95.518867,29.864128 92.146454,26.260254 
	C92.007431,25.953840 91.988480,25.536875 92.446533,25.285061 
	C101.284698,24.974627 109.664803,24.916006 118.044914,24.857386 
	C118.044914,24.857386 117.958961,24.960737 117.945236,25.026531 
z"/>
<path fill="#CFD94F" opacity="1.000000" stroke="none" 
	d="
M103.897614,93.703308 
	C95.627457,94.026909 87.251030,94.031136 78.402206,93.996841 
	C82.016548,89.583832 86.103302,85.209343 90.344193,80.530167 
	C90.498337,80.225471 90.888771,80.126389 90.984497,80.176292 
	C95.317276,84.612106 99.554314,88.998016 103.897614,93.703308 
z"/>
<path fill="#458791" opacity="1.000000" stroke="none" 
	d="
M117.899094,24.563498 
	C109.664803,24.916006 101.284698,24.974627 92.435349,25.076664 
	C96.065033,20.696859 100.163940,16.273640 104.578407,11.690829 
	C109.180405,15.777362 113.466835,20.023485 117.899094,24.563498 
z"/>
<path fill="#F3F5F5" opacity="1.000000" stroke="none" 
	d="
M181.731232,89.003220 
	C181.707581,86.796288 180.844147,83.530289 184.532303,84.216751 
	C185.681015,84.430565 186.426117,86.812912 187.320663,88.626007 
	C185.570908,89.076401 183.856506,89.103325 181.731232,89.003220 
z"/>
<path fill="#F3F5F5" opacity="1.000000" stroke="none" 
	d="
M207.015594,118.960953 
	C202.477448,118.200211 200.901962,115.333916 202.140991,111.771706 
	C202.790451,109.904495 205.829178,107.222542 207.053940,107.561821 
	C209.248917,108.169838 211.954651,110.500000 212.515869,112.621277 
	C213.402802,115.973763 211.284637,118.571182 207.015594,118.960953 
z"/>
<path fill="#E61B26" opacity="1.000000" stroke="none" 
	d="
M105.874725,67.471237 
	C109.401932,63.337311 113.107101,59.489338 116.972183,55.344322 
	C117.413116,62.834442 117.694145,70.621597 117.934219,78.905045 
	C113.946419,75.519951 109.999557,71.638573 105.874725,67.471237 
z"/>
<path fill="#F49527" opacity="1.000000" stroke="none" 
	d="
M118.972183,53.114670 
	C122.984337,48.754288 127.041992,44.606728 131.482361,40.814270 
	C131.912094,49.110874 131.959106,57.052376 132.006134,64.993881 
	C132.006134,64.993881 131.863403,65.152191 131.792725,65.235603 
	C127.707390,61.572418 123.692726,57.825813 119.374855,53.919304 
	C119.071648,53.759399 119.017677,53.327496 118.972183,53.114670 
z"/>
<path fill="#EF913E" opacity="1.000000" stroke="none" 
	d="
M132.260925,64.996979 
	C131.959106,57.052376 131.912094,49.110874 131.790863,40.630184 
	C131.909576,39.794590 132.102493,39.498184 132.451355,39.114109 
	C132.726013,39.144680 132.844681,39.262920 133.064651,39.611706 
	C133.109299,47.917515 133.052628,55.992771 133.010620,64.537270 
	C132.855438,65.004356 132.685577,65.002213 132.260925,64.996979 
z"/>
<path fill="#36A6DB" opacity="1.000000" stroke="none" 
	d="
M132.652115,37.933479 
	C132.213226,38.154408 131.986511,38.002026 131.773468,37.561325 
	C131.919098,37.281425 132.110596,37.201385 132.607605,37.066376 
	C132.876999,37.223816 132.840897,37.436222 132.652115,37.933479 
z"/>
<path fill="#F3F5F5" opacity="1.000000" stroke="none" 
	d="
M167.035828,119.351547 
	C164.945877,119.724098 162.961609,119.670677 160.563019,119.512039 
	C159.738907,118.047188 159.329102,116.687553 158.919281,115.327919 
	C161.443954,114.707275 163.968613,114.086632 167.141495,113.306633 
	C167.141495,115.838890 167.141495,117.382233 167.035828,119.351547 
z"/>
<path fill="#36A6DB" opacity="1.000000" stroke="none" 
	d="
M119.093056,25.235027 
	C122.781288,21.060297 126.626167,17.186687 130.775696,13.173893 
	C131.353912,20.791376 131.627487,28.548044 131.792801,36.793411 
	C127.539597,33.366787 123.394653,29.451468 119.093056,25.235027 
z"/>
</svg>